<?xml version="1.0" encoding="iso-8859-1"?>
<!-- Generator: Adobe Illustrator 19.0.0, SVG Export Plug-In . SVG Version: 6.00 Build 0)  -->
<svg version="1.1" id="Layer_1" xmlns="http://www.w3.org/2000/svg" xmlns:xlink="http://www.w3.org/1999/xlink" x="0px" y="0px" width="100px" height="100px"
	 viewBox="0 0 502 502" style="enable-background:new 0 0 502 502;" xml:space="preserve">
<g>
	<rect x="10" y="64" style="fill:#4EC9DC;" width="482" height="318"/>
	<rect x="200" y="382" style="fill:#D1E2EB;" width="102" height="56"/>
	<g>
		<path d="M208,108.5H47c-5.523,0-10-4.477-10-10s4.477-10,10-10h161c5.523,0,10,4.477,10,10S213.523,108.5,208,108.5z"/>
	</g>
	<g>
		<path d="M263,108.5h-19c-5.523,0-10-4.477-10-10s4.477-10,10-10h19c5.523,0,10,4.477,10,10S268.523,108.5,263,108.5z"/>
	</g>
	<path d="M346,448c5.523,0,10-4.477,10-10s-4.477-10-10-10h-34v-36h180c5.523,0,10-4.477,10-10V64c0-5.523-4.477-10-10-10H10
		C4.477,54,0,58.477,0,64v318c0,5.523,4.477,10,10,10h180v36h-34c-5.523,0-10,4.477-10,10s4.477,10,10,10H346z M292,428h-82v-36h82
		V428z M20,372V74h462v298H20z"/>
</g>
<g>
</g>
<g>
</g>
<g>
</g>
<g>
</g>
<g>
</g>
<g>
</g>
<g>
</g>
<g>
</g>
<g>
</g>
<g>
</g>
<g>
</g>
<g>
</g>
<g>
</g>
<g>
</g>
<g>
</g>
</svg>
